<svg version="1.1" xmlns="http://www.w3.org/2000/svg" xmlns:xlink="http://www.w3.org/1999/xlink" class="thumbnail-icon" viewBox="0 0 200 200"><g><path d="M113.64595,13.56505c-45.33737,0.01953 -82.95482,35.06602 -86.17884,80.28846h-27.4671l35.21424,38.41553l35.21424,-38.41553h-26.92288c2.78064,-32.16468 27.07463,-58.31958 58.94703,-63.46278c31.87209,-5.1432 63.15993,12.04295 75.91677,41.70006c12.75684,29.65743 3.71574,64.19043 -21.93783,83.79164c-25.65325,19.60088 -61.34864,19.2497 -86.61134,-0.85218l-9.82797,12.80518c29.71409,23.46357 71.24,24.85805 102.46126,3.44075c31.22094,-21.4173 44.86966,-60.661 33.67633,-96.82987c-11.19333,-36.16886 -44.62284,-60.84284 -82.48391,-60.88125zM104.84239,62.38479v42.57721l38.79969,26.73081l7.23492,-10.56427l-33.22943,-22.88925v-35.8545z" fill-rule="evenodd"></path></g></svg>