<svg version="1.1" xmlns="http://www.w3.org/2000/svg" xmlns:xlink="http://www.w3.org/1999/xlink" viewBox="0 0 200 200"><g><path d="M93.87099,6.38101c-0.06969,-3.23625 2.34187,-5.98968 5.55593,-6.34343c1.78594,-0.19687 3.57031,0.38687 4.89562,1.60156c1.32562,1.215 2.06344,2.94312 2.02469,4.74187v24.98311c0.03156,2.2525 -1.15031,4.3475 -3.09344,5.48312c-1.94312,1.13531 -4.34625,1.13531 -6.28937,0c-1.94344,-1.13562 -3.12531,-3.23062 -3.09344,-5.48312zM164.34189,23.75194c0.9625,-1.0025 2.23156,-1.65531 3.60656,-1.85406c2.69531,-0.39125 5.33281,1.01375 6.515,3.47062c1.1825,2.45656 0.63625,5.3975 -1.34906,7.26437l-18.71437,18.73718c-1.57406,1.62094 -3.9,2.26375 -6.08156,1.68062c-2.18156,-0.58281 -3.87844,-2.30062 -4.43656,-4.49125c-0.55812,-2.19031 0.10969,-4.51187 1.74562,-6.07zM25.51541,26.07537c0.79656,-2.30875 2.86406,-3.94094 5.29218,-4.1775c1.88312,-0.18312 3.74719,0.49875 5.06843,1.85406l18.71437,18.73749c1.63625,1.55812 2.30375,3.87969 1.74594,6.07c-0.55812,2.19062 -2.255,3.90844 -4.43656,4.49125c-2.18156,0.58312 -4.5075,-0.05969 -6.08156,-1.68062l-18.71437,-18.73718c-1.76469,-1.68687 -2.38531,-4.24875 -1.58844,-6.5575zM47.08539,96.94471c0,-27.85842 24.73655,-49.96622 53.02372,-49.96622c28.28717,0 53.02372,22.1078 53.02372,49.96622c0,14.21562 -6.41156,24.96186 -12.08624,33.08279c-5.67468,8.12125 -9.74718,14.12843 -9.74718,16.88343v34.35186c-0.00031,3.44937 -2.79281,6.24531 -6.23781,6.24562h-7.50531c-2.62219,7.19437 -9.40593,12.49156 -17.44718,12.49156c-8.04125,0 -14.8253,-5.29718 -17.44718,-12.49156h-7.50531c-3.445,-0.00031 -6.2375,-2.79625 -6.23812,-6.24562v-34.35186c0,-2.755 -4.0725,-8.76218 -9.74687,-16.88343c-5.67468,-8.12093 -12.08624,-18.86718 -12.08624,-33.08279zM140.65659,96.94471c0,-20.32999 -18.77405,-37.47467 -40.54748,-37.47467c-21.77343,0 -40.54779,17.14468 -40.54779,37.47467c0,10.53843 4.505,18.45687 9.74718,25.95905c5.24218,7.50218 12.08624,14.07656 12.08624,24.00717v3.12281h37.42873v-3.12281c0,-9.93062 6.84406,-16.50499 12.08624,-24.00717c5.24187,-7.50218 9.74687,-15.42062 9.74687,-25.95905zM0.00698,97.23752c-0.16156,-3.44937 2.50062,-6.37687 5.94593,-6.53843c0.19469,-0.00937 0.39,-0.00937 0.58469,0h24.95249c2.24781,-0.02937 4.3375,1.15469 5.47,3.09906c1.1325,1.94469 1.1325,4.34875 0,6.29312c-1.1325,1.94469 -3.22219,3.12875 -5.47,3.09937h-24.95249c-3.44531,0.16187 -6.36906,-2.50344 -6.53062,-5.95312zM162.19752,97.23752c-0.16156,-3.44937 2.50062,-6.37687 5.94593,-6.53843c0.19469,-0.00937 0.38969,-0.00937 0.58469,0h24.95249c2.24781,-0.02937 4.3375,1.15469 5.47,3.09906c1.1325,1.94469 1.1325,4.34875 0,6.29312c-1.1325,1.94469 -3.22219,3.12875 -5.47,3.09937h-24.95249c-3.44531,0.16187 -6.36906,-2.50344 -6.53062,-5.95312zM118.82348,162.5253h-37.42873v12.49156h6.23812c3.445,0.00031 6.23781,2.79656 6.23812,6.24593c0,3.56812 2.67437,6.24562 6.23812,6.24562c3.56375,0 6.23812,-2.6775 6.23812,-6.24562c0.00031,-3.44937 2.79281,-6.24562 6.23812,-6.24593h6.23812z" fill-rule="evenodd"></path></g></svg>