<?xml version="1.0" encoding="UTF-8" standalone="no"?>
<!-- Created with Inkscape (http://www.inkscape.org/) -->

<svg
 xmlns:dc="http://purl.org/dc/elements/1.1/"
 xmlns:cc="http://creativecommons.org/ns#"
 xmlns:rdf="http://www.w3.org/1999/02/22-rdf-syntax-ns#"
 xmlns:svg="http://www.w3.org/2000/svg"
 xmlns="http://www.w3.org/2000/svg"
 xmlns:sodipodi="http://sodipodi.sourceforge.net/DTD/sodipodi-0.dtd"
 xmlns:inkscape="http://www.inkscape.org/namespaces/inkscape"
 id="svg3039"
 version="1.1"
 inkscape:version="0.48.5 r10040"
 width="734"
 height="515"
 sodipodi:docname="Bildschirmfoto 2019-10-25 um 11.39.49.png">
<metadata
 id="metadata3045">
<rdf:RDF>
<cc:Work
 rdf:about="">
<dc:format>image/svg+xml</dc:format>
<dc:type
 rdf:resource="http://purl.org/dc/dcmitype/StillImage" />
<dc:title></dc:title>
</cc:Work>
</rdf:RDF>
</metadata>
<defs
 id="defs3043" />
<sodipodi:namedview
 pagecolor="#ffffff"
 bordercolor="#666666"
 borderopacity="1"
 objecttolerance="10"
 gridtolerance="10"
 guidetolerance="10"
 inkscape:pageopacity="0"
 inkscape:pageshadow="2"
 inkscape:window-width="1523"
 inkscape:window-height="857"
 id="namedview3041"
 showgrid="false"
 inkscape:zoom="0.73319422"
 inkscape:cx="367"
 inkscape:cy="257.5"
 inkscape:window-x="0"
 inkscape:window-y="0"
 inkscape:window-maximized="0"
 inkscape:current-layer="svg3039" />
<path
 style="fill:#000000"
 d="M 307.66667,478.33333 C 307.3,477.96667 307,457.9575 307,433.86852 307,393.1758 306.87592,390.00464 305.25,389.14337 302.66457,387.77384 290.98856,386.16236 278.5,385.45143 272.45,385.10703 263.96279,384.18957 259.63953,383.41263 255.31627,382.63568 250.00876,382 247.84505,382 245.68134,382 241.11855,381.3616 237.70552,380.58134 234.29248,379.80108 228.35,378.67809 224.5,378.08581 213.85132,376.44763 206.07086,375.00035 200,373.52845 196.975,372.79503 192.25,371.64695 189.5,370.97715 186.75,370.30736 182.025,369.1706 179,368.45103 175.975,367.73145 170.125,366.19196 166,365.02994 161.875,363.86792 156.925,362.51583 155,362.0253 150.78141,360.95032 142.26345,358.15322 139.5,356.93547 136.85461,355.76974 129.36997,353.13691 125,351.83489 123.075,351.26133 121.05,350.44392 120.5,350.01842 119.95,349.59292 118.375,348.9045 117,348.48861 109.51246,346.22388 76.782,329.82166 72.921259,326.39943 72.052952,325.62974 70.99893,325 70.578989,325 70.159047,325 68.784061,324.2125 67.523464,323.25 66.262866,322.2875 64.228506,320.825 63.002663,320 49.401139,310.84609 31.678068,293.9901 24.25,283.14327 21.9125,279.72994 20,276.74614 20,276.51261 20,276.27908 18.755517,273.93071 17.234481,271.29401 14.445333,266.45904 11.81075,260.0118 8.578956,250.11256 5.114161,239.49962 5.401059,206.98802 9.047647,197 13.361646,185.18394 14.54043,182.33604 15.702858,180.92126 16.416286,180.05295 17,178.82055 17,178.18258 17,176.50269 27.905835,161.48476 34.079403,154.66331 36.984689,151.45313 43.21785,145.47038 47.930871,141.3683 58.515896,132.15541 58.712841,132 59.802806,132 60.290776,132 61.504514,131.1 62.5,130 63.495486,128.9 64.694846,128 65.165243,128 65.635641,128 68.162004,126.5375 70.779383,124.75 73.396762,122.9625 76.879647,120.75972 78.519127,119.85494 88.84068,114.15878 100.67665,108.34206 108.94806,104.90081 114.20163,102.71512 119.69443,100.26829 121.15429,99.463411 122.61415,98.658535 124.66564,98 125.71316,98 126.76068,98 128.49125,97.339312 129.55887,96.531803 130.62649,95.724295 132.4,95.046523 133.5,95.025643 134.6,95.004762 136.82053,94.299063 138.4345,93.457422 140.04848,92.615782 142.97348,91.53326 144.9345,91.051818 148.3286,90.21855 149.91064,89.729583 158,87.013622 162.2631,85.582309 170.92129,83.23382 177,81.85997 179.475,81.300596 183.75,80.234594 186.5,79.491078 189.25,78.747561 193.975,77.642992 197,77.03648 211.37394,74.154505 217.03266,73.081869 223.5,72.013279 227.35,71.377148 233.875,70.243876 238,69.494896 246.48883,67.953571 258.13322,66.510952 278.5,64.477364 286.2,63.708533 296.325,62.549076 301,61.900793 312.5977,60.292539 418.02779,60.286818 430.5,61.893765 435.45,62.531534 446.25,63.723709 454.5,64.543042 462.75,65.362374 471.525,66.455774 474,66.972818 476.475,67.489862 480.75,67.937837 483.5,67.968318 486.25,67.998799 490.975,68.688056 494,69.5 497.025,70.311944 501.09296,70.981603 503.0399,70.988131 504.98685,70.994659 509.24628,71.69453 512.50532,72.5434 515.76435,73.392271 520.92139,74.498978 523.96542,75.002751 533.29624,76.546963 540.28459,78.051109 545.13421,79.559044 547.68303,80.35157 550.41975,81 551.2158,81 552.01186,81 555.77647,81.911643 559.58159,83.025873 563.38672,84.140104 568.75,85.699853 571.5,86.491984 582.05708,89.532925 590.62285,92.288201 593.65113,93.617144 595.38425,94.377715 597.28148,95 597.8672,95 598.45292,95 600.40991,95.636772 602.21607,96.415049 604.02223,97.193326 607.975,98.792435 611,99.968626 617.23249,102.39197 618.18699,102.79672 626.5,106.54145 662.01187,122.53832 689.15911,142.44124 704.97362,164.07417 707.15519,167.05838 709.34966,169.98578 709.85022,170.57951 712.46041,173.67554 718.5339,186.74371 721.66451,196 725.21564,206.49964 725.21576,206.50065 725.326,225.5 725.41859,241.4572 725.16109,245.12011 723.71812,248.37212 722.77316,250.50179 722,252.90878 722,253.72099 722,257.83956 711.98344,276.8173 704.96296,286 699.39002,293.28934 685.56765,307.27684 679.5,311.76717 677.85,312.98824 674.7,315.38999 672.5,317.1044 663.13335,324.4036 656.90456,328.06499 637.25045,337.82464 629.1377,341.85319 621.22603,345.79069 619.66896,346.57464 618.11189,347.35859 616.31189,348.00277 615.66896,348.00616 615.02603,348.00955 613.15,348.7387 611.5,349.6265 609.85,350.5143 607.15,351.60573 605.5,352.0519 601.82141,353.04661 594.20685,355.72695 591.5,356.97992 590.4,357.4891 587.925,358.34061 586,358.87216 584.075,359.40371 581.15,360.28619 579.5,360.83323 577.85,361.38026 574.025,362.49924 571,363.31985 567.975,364.14046 562.35,365.76072 558.5,366.92042 554.65,368.08013 550.76746,369.02246 549.87212,369.01449 548.97679,369.00652 546.72679,369.61496 544.87212,370.36658 543.01746,371.11819 539.3625,372.00958 536.75,372.34745 L 532,372.96174 532,327.49429 532,282.02684 535.52482,280.55408 C 537.46347,279.74406 540.72597,278.77934 542.77482,278.41027 544.82367,278.04119 546.99796,277.34636 547.60657,276.8662 548.21518,276.38604 550.69018,275.58783 553.10657,275.09241 555.52296,274.59698 559.075,273.62528 561,272.93307 562.925,272.24087 566.975,270.78482 570,269.6974 573.025,268.60999 577.075,267.03191 579,266.19055 580.925,265.34919 583.85,264.11134 585.5,263.43978 591.54214,260.98059 609.48108,251.76674 611.84097,249.91045 613.17678,248.8597 614.72518,248 615.28187,248 616.75949,248 624.78636,241.41562 630.13684,235.81458 636.17494,229.49372 637.65935,226.00604 636.00816,222.0197 633.84679,216.8017 620.82712,204.47569 614,201.18409 612.625,200.52116 610.15,199.09022 608.5,198.00423 606.85,196.91823 604.47556,195.57961 603.22346,195.02951 601.97137,194.47941 598.21269,192.67273 594.87084,191.01466 591.52899,189.3566 588.22103,188 587.51982,188 586.81861,188 585.68469,187.325 585,186.5 584.31531,185.675 582.90858,185 581.87393,185 580.83928,185 578.31355,184.1 576.26118,183 574.20882,181.9 571.76201,181 570.82383,181 569.88564,181 568.86132,180.58462 568.54755,180.07694 568.23378,179.56925 566.51973,178.84679 564.73853,178.47146 562.95734,178.09613 560.15,177.20706 558.5,176.49575 556.85,175.78444 553.7,174.72681 551.5,174.14547 549.3,173.56413 545.025,172.34125 542,171.42796 538.975,170.51468 533.62989,169.12977 530.12198,168.35039 526.61407,167.57101 522.93115,166.49834 521.93772,165.96667 520.94429,165.435 518.58348,165 516.69147,165 514.79946,165 511.37461,164.33781 509.08069,163.52847 506.78677,162.71913 502.56769,161.77373 499.70496,161.4276 496.84223,161.08147 492.28082,160.16865 489.5685,159.39913 486.85617,158.62961 482.89866,158 480.77401,158 478.64937,158 474.11855,157.3644 470.70552,156.58755 465.06059,155.30271 458.73267,154.56662 431.5,152.02703 426.55,151.56542 409.75927,150.63644 394.18726,149.96264 358.49997,148.41844 323.79381,149.64761 279,154.04216 272.675,154.66268 264.70752,155.80704 261.29448,156.58519 257.88145,157.36334 253.05968,158 250.57943,158 248.09919,158 244.14167,158.62717 241.78495,159.39372 239.42823,160.16026 235.15777,161.07307 232.29504,161.42219 229.43231,161.7713 225.21323,162.71913 222.91931,163.52847 220.62539,164.33781 217.20054,165 215.30853,165 213.41652,165 211.05571,165.435 210.06228,165.96667 209.06885,166.49834 205.38593,167.58449 201.87802,168.38035 190.55084,170.95019 186.54032,172.01632 184.5,173 183.4,173.53033 180.7,174.3913 178.5,174.91326 174.64772,175.82724 167.66735,178.14475 163.5,179.89332 162.4,180.35487 158.8,181.73477 155.5,182.95978 144.01886,187.22173 123.07343,197.51692 115.05188,202.84102 107.39547,207.92277 97.49413,217.39284 95.95673,221.10447 93.47721,227.09055 97.97073,234.21905 110,243.38261 113.025,245.68697 116.625,248.12336 118,248.7968 119.375,249.47024 121.85,250.89038 123.5,251.95266 127.21154,254.34217 136.37032,258.76171 147,263.29251 148.925,264.11302 152.57429,265.73287 155.10953,266.89217 157.64477,268.05148 160.18084,269 160.74522,269 161.30961,269 163.06032,269.67223 164.63569,270.49384 166.21106,271.31545 168.4,272.0064 169.5,272.02927 170.6,272.05215 172.625,272.71398 174,273.5 175.375,274.28602 177.4,274.94785 178.5,274.97073 179.6,274.9936 181.65161,275.6133 183.05912,276.34783 184.46664,277.08236 187.59432,277.99933 190.00951,278.38553 192.4247,278.77174 194.8731,279.47813 195.45039,279.95529 196.02767,280.43245 198.75,281.25711 201.5,281.78785 204.25,282.3186 208.75,283.28854 211.5,283.94329 214.25,284.59803 218.525,285.61723 221,286.20817 226.12577,287.43203 236.2566,289.33436 246.5,290.99647 250.35,291.62117 256.88528,292.77753 261.02285,293.56615 265.16041,294.35477 270.56041,295.00171 273.02285,295.00381 275.48528,295.0059 281.55,295.67304 286.5,296.48635 299.33235,298.59475 304.67309,298.47935 305.96482,296.06574 306.63019,294.82248 307,279.46105 307,253.06574 307,220.41441 307.26169,212 308.27714,212 308.97957,212 310.91807,213.2375 312.58492,214.75 314.25177,216.2625 317.50335,218.7996 319.81065,220.38799 322.11795,221.97639 325.16824,224.35334 326.58906,225.67012 328.00988,226.98689 331.72109,229.93971 334.83618,232.23194 337.95128,234.52417 341.01057,236.90063 341.63459,237.51298 342.62529,238.48513 413.88192,293.81724 423.78785,301.30653 425.82953,302.85013 428.41776,304.90227 429.53946,305.86686 432.49162,308.40551 441.3494,315.24905 443.94938,317 445.17442,317.825 447.17007,319.4 448.38414,320.5 449.59822,321.6 456.75783,327.225 464.29438,333 473.9042,340.36367 477.99119,344.0974 477.97704,345.5 477.96416,346.77672 475.92211,348.94656 472.3304,351.5 469.23584,353.7 466.20805,355.97861 465.60197,356.56357 464.99588,357.14854 450.37374,368.55286 433.1083,381.90651 415.84287,395.26016 401.08975,406.70656 400.3236,407.34294 397.08562,410.03248 396.31125,410.64114 392.53551,413.46449 390.35504,415.09496 387.83683,417.16317 386.93949,418.06051 386.04216,418.95784 383.10118,421.19412 380.40399,423.03002 377.70679,424.86591 375.275,426.66547 375,427.02904 374.725,427.3926 360.325,438.62767 343,451.99586 325.675,465.36404 311.14014,476.90878 310.70031,477.65082 309.82783,479.1228 308.70806,479.37473 307.66667,478.33333 z"
 id="path3049"
 inkscape:connector-curvature="0" />
</svg>
