<svg id="Ebene_1" data-name="Ebene 1" xmlns="http://www.w3.org/2000/svg" viewBox="0 0 85 69">
  <title>top-line</title>
  <rect width="85" height="3"/>
  <rect y="66" width="85" height="3" style="opacity: 0"/>
  <g>
    <path d="M15.92,62.18l9.35-24.36h3.47l10,24.36H35L32.2,54.8H22l-2.67,7.38Zm7-10H31.2l-2.54-6.75c-.78-2-1.35-3.73-1.73-5A31.66,31.66,0,0,1,25.62,45Z" transform="translate(-7.5 -15)"/>
    <path d="M41.15,62.18V37.82h9.14a11.31,11.31,0,0,1,4.47.74,5.77,5.77,0,0,1,2.64,2.28,6,6,0,0,1,1,3.21A5.48,5.48,0,0,1,57.51,47,6.07,6.07,0,0,1,55,49.22a6.37,6.37,0,0,1,3.4,2.21,5.93,5.93,0,0,1,1.19,3.69,7,7,0,0,1-.73,3.18A6.2,6.2,0,0,1,57,60.57a7.47,7.47,0,0,1-2.67,1.2,16.29,16.29,0,0,1-3.93.41Zm3.22-14.12h5.27a11.56,11.56,0,0,0,3.07-.29,3.34,3.34,0,0,0,1.85-1.21,3.44,3.44,0,0,0,.63-2.12,3.93,3.93,0,0,0-.59-2.14A2.94,2.94,0,0,0,52.94,41a13.72,13.72,0,0,0-3.7-.34H44.37Zm0,11.24h6.06a15.25,15.25,0,0,0,2.2-.11,5.42,5.42,0,0,0,1.86-.67,3.51,3.51,0,0,0,1.23-1.35,4.28,4.28,0,0,0,.48-2.05,4,4,0,0,0-.7-2.37,3.66,3.66,0,0,0-1.93-1.41A12.1,12.1,0,0,0,50,50.93H44.37Z" transform="translate(-7.5 -15)"/>
    <path d="M81.35,53.64l3.22.81a10.85,10.85,0,0,1-3.65,6.06,10,10,0,0,1-6.43,2.08A11.58,11.58,0,0,1,68.08,61a10.07,10.07,0,0,1-3.75-4.64A16.58,16.58,0,0,1,63,49.82a14.35,14.35,0,0,1,1.46-6.64,9.87,9.87,0,0,1,4.13-4.3,12.1,12.1,0,0,1,5.91-1.47,10,10,0,0,1,6.14,1.86,9.63,9.63,0,0,1,3.47,5.23L81,45.25a7.47,7.47,0,0,0-2.46-3.87,6.52,6.52,0,0,0-4-1.21,7.83,7.83,0,0,0-4.69,1.34,7.1,7.1,0,0,0-2.65,3.61,14.62,14.62,0,0,0-.77,4.68,14.9,14.9,0,0,0,.91,5.42,6.75,6.75,0,0,0,2.81,3.47,8,8,0,0,0,4.14,1.14,7,7,0,0,0,4.59-1.56A8,8,0,0,0,81.35,53.64Z" transform="translate(-7.5 -15)"/>
  </g>
</svg>
